<svg xmlns="http://www.w3.org/2000/svg" width="94" height="27" viewBox="0 0 94 27" fill="none"><g clip-path="url(#clip0_859_20)"><path d="M90.9813 8.15037C89.8535 8.15037 88.8102 7.78457 87.9616 7.16527V26.6321H94V7.16634C93.1514 7.78457 92.1081 8.15144 90.9803 8.15144" fill="#00858D"></path><path d="M90.9813 0C89.3142 0 87.9616 1.35091 87.9616 3.01842C87.9616 4.68593 89.3131 6.03684 90.9813 6.03684C92.6496 6.03684 94.0011 4.68593 94.0011 3.01842C94.0011 1.35091 92.6496 0 90.9813 0Z" fill="#F6A81C"></path><path d="M11.1212 27C7.43909 27 4.65906 26.2032 2.78109 24.6073C0.902055 23.0136 -0.0246223 20.7803 -1.07257e-05 17.9094H6.29733C6.32194 19.3331 6.80026 20.3631 7.73336 21.0017C8.66646 21.6402 9.88098 21.959 11.3791 21.959C12.7541 21.959 13.7964 21.7322 14.509 21.2776C15.2206 20.8241 15.5887 20.1545 15.6133 19.2721C15.5887 18.6828 15.4293 18.2047 15.135 17.8367C14.8407 17.4688 14.325 17.1372 13.5888 16.8431C12.8526 16.5489 11.8082 16.2173 10.4588 15.8494C10.3112 15.8494 10.1699 15.8194 10.0351 15.7574C9.90024 15.6964 9.77077 15.6654 9.64878 15.6654C7.61137 15.1745 5.99022 14.66 4.78854 14.1198C3.58578 13.5808 2.62807 12.801 1.91648 11.7828C1.20381 10.7645 0.848552 9.43391 0.848552 7.78886C0.82394 5.35979 1.73243 3.53719 3.57401 2.32319C5.41346 1.10705 7.83074 0.499512 10.8259 0.499512C13.1329 0.499512 15.0483 0.843924 16.57 1.53061C18.0916 2.21836 19.2152 3.15641 19.9396 4.34688C20.663 5.53734 21.0129 6.92997 20.9893 8.52475H14.8397C14.8151 7.59205 14.4534 6.84975 13.7536 6.29783C13.0537 5.74592 12.0286 5.46996 10.6793 5.46996C9.59849 5.46996 8.75206 5.64217 8.13892 5.98551C7.5247 6.32992 7.21866 6.92997 7.21866 7.78886C7.24327 8.32901 7.39629 8.78252 7.67879 9.15047C7.96021 9.51841 8.42783 9.83822 9.07843 10.1078C9.72903 10.3784 10.6921 10.6597 11.9687 10.9538C11.9933 10.9538 12.0179 10.942 12.0425 10.9174C12.1164 10.9667 12.1955 10.9913 12.2822 10.9913C12.3689 10.9913 12.4352 11.0041 12.4845 11.0276C14.7423 11.5432 16.5165 12.0705 17.8048 12.6106C19.0932 13.1508 20.1001 13.8931 20.8246 14.8375C21.549 15.782 21.9224 17.0645 21.9481 18.6838C21.9235 21.2605 20.9776 23.2906 19.1124 24.7752C17.2463 26.2598 14.5829 27.0021 11.1223 27.0021" fill="#00858D"></path><path d="M33.7274 26.6321L33.691 11.8726L33.1014 7.89795H38.8456L39.7658 11.91L38.8819 11.4319C39.4213 10.1559 40.1885 9.19324 41.1837 8.54292C42.1777 7.8926 43.3623 7.56744 44.7373 7.56744C46.2836 7.56744 47.5227 7.92362 48.4569 8.63491C49.3889 9.34726 50.0524 10.4147 50.4451 11.8373H49.4874C50.0524 10.4383 50.8742 9.37721 51.9549 8.65416C53.0346 7.93004 54.2984 7.56851 55.7473 7.56851C58.0308 7.56851 59.6872 8.27445 60.7188 9.68526C61.7493 11.0971 62.2779 13.1764 62.3025 15.9243L62.2661 26.6353H56.2641L56.3005 16.366C56.2513 15.4344 56.1218 14.691 55.9142 14.1391C55.7055 13.5872 55.4166 13.1818 55.0485 12.9251C54.6804 12.6673 54.2256 12.539 53.6863 12.539C52.7778 12.539 52.1026 12.8459 51.6607 13.4588C51.2187 14.0728 51.0218 15.0664 51.0711 16.4398L51.0347 26.6353H44.9963V16.4034C44.9717 15.4461 44.8615 14.6921 44.6646 14.1402C44.4677 13.5882 44.1798 13.1829 43.7989 12.9262C43.418 12.6684 42.9461 12.54 42.3811 12.54C41.4972 12.54 40.8284 12.847 40.3747 13.4599C39.9199 14.0738 39.6931 15.0675 39.6931 16.4409L39.7669 26.6363H33.7274V26.6321Z" fill="#00858D"></path><path d="M65.0793 26.6321L65.5951 22.6574L65.5212 0.467422H71.5607V22.5836L70.7132 26.6321H65.0793ZM77.2641 26.9636C75.6933 26.9636 74.3429 26.5957 73.2139 25.8598C72.085 25.1239 71.2257 24.0319 70.6361 22.5836C70.0465 21.1364 69.7523 19.3695 69.7523 17.2837C69.7277 17.1126 69.7212 16.934 69.7341 16.75C69.7458 16.566 69.7651 16.3885 69.7897 16.2163C69.8871 14.3273 70.237 12.7443 70.8395 11.4683C71.4408 10.1923 72.2873 9.2232 73.3798 8.56004C74.4713 7.89796 75.7543 7.56638 77.2278 7.56638C78.9217 7.56638 80.3941 7.96534 81.6461 8.7622C82.898 9.56012 83.8311 10.6886 84.4443 12.1486C85.0574 13.6086 85.3645 15.2953 85.3645 17.2089C85.3645 19.1224 85.0574 20.884 84.4443 22.343C83.8301 23.803 82.9034 24.9378 81.6642 25.7475C80.424 26.5572 78.958 26.9626 77.2641 26.9626M75.4996 21.9932C76.727 21.9932 77.6718 21.5825 78.3353 20.7599C78.9976 19.9385 79.354 18.7544 79.4032 17.2078C79.3786 16.2505 79.2245 15.4173 78.9431 14.7049C78.6606 13.9936 78.2251 13.4599 77.6354 13.1037C77.0458 12.7486 76.3342 12.57 75.4996 12.57C74.2476 12.57 73.2835 12.9754 72.6093 13.784C71.9341 14.5937 71.6088 15.7349 71.6334 17.2067C71.5842 18.2132 71.7126 19.0839 72.0197 19.8198C72.3258 20.5556 72.7613 21.1022 73.3274 21.4573C73.8913 21.8135 74.6168 21.9911 75.4996 21.9911" fill="#00858D"></path><path d="M30.2839 7.89795H24.2455V26.6321H30.2839V7.89795Z" fill="#00858D"></path><path d="M30.2839 0.499512H24.2455V5.69458H30.2839V0.499512Z" fill="#F6A81C"></path></g><defs><clipPath id="clip0_859_20"><rect width="94" height="27" fill="white"></rect></clipPath></defs></svg>